<?xml version="1.0" encoding="utf-8"?>
<!-- Generator: Adobe Illustrator 16.0.0, SVG Export Plug-In . SVG Version: 6.00 Build 0)  -->
<!DOCTYPE svg PUBLIC "-//W3C//DTD SVG 1.1//EN" "http://www.w3.org/Graphics/SVG/1.1/DTD/svg11.dtd">
<svg version="1.1" id="Layer_9" xmlns="http://www.w3.org/2000/svg" xmlns:xlink="http://www.w3.org/1999/xlink" x="0px" y="0px"
	 viewBox="0 0 320 162" style="enable-background:new 0 0 320 162;" xml:space="preserve">
<style type="text/css">
<![CDATA[
	.st0{fill-rule:evenodd;clip-rule:evenodd;fill:#444545;}
	.st1{display:none;fill-rule:evenodd;clip-rule:evenodd;fill:#444545;}
	.st2{font-family:'MyriadPro-Regular';}
	.st3{fill-rule:evenodd;clip-rule:evenodd;fill:#ED6B22;}
	.st4{display:none;fill:#444545;}
	.st5{font-size:13;}
	.st6{display:none;}
	.st7{display:inline;fill:#444545;}
	.st8{fill:#444545;}
]]>
</style>
<g>
	<g>
		<polygon class="st0" points="194.3,72.9 194.3,72.9 199.6,82.2 199.6,82.2 188.9,82.2 183,82.2 172.2,82.2 172.2,82.2 168.8,76.2 
			168.6,75.9 168.6,75.9 165.6,70.8 155.8,53.8 154.9,52.2 160.3,42.9 163.9,49.2 165.6,52.2 165.6,52.2 171,61.5 171,61.5 
			176.8,71.6 176.8,71.6 177.6,72.9 180,72.9 183.5,72.9 		"/>
		<polygon class="st3" points="126.5,72.9 126.5,72.9 138.5,52.2 138.6,52.1 138.6,52.1 143.9,42.9 146.7,38 150.9,30.8 150.9,30.8 
			152.1,28.7 160.4,14.2 165.8,23.5 168.4,28.1 175.4,40.3 178.5,45.5 189,63.8 189,63.8 191.3,67.8 180.6,67.8 176.9,61.5 
			176.9,61.4 175.5,59.1 168.6,47.1 165.6,41.9 164.3,39.6 161.7,35.1 160.4,32.9 158.9,35.4 157.4,38 152.1,47.3 152.1,47.3 
			149.2,52.2 149.2,52.2 149.2,52.2 143.9,61.5 137.3,72.9 143,72.9 147.5,65 147.5,65 148.9,62.5 151.7,57.7 152.1,57.1 
			157.4,66.4 153.7,72.9 152.1,75.7 148.3,82.2 131.9,82.2 121.2,82.2 		"/>
	</g>
	<path class="st1" d="M86.4,117.4h-4.8l-1,2.2h-1.1l4-8.8h1l3.9,8.8h-1.1L86.4,117.4L86.4,117.4z M86,116.5l-2-4.5l-2,4.5H86
		L86,116.5z M90.9,119.7h-1v-8.8h1V119.7L90.9,119.7z M93.6,110.9h3.6c1.3,0,2.4,0.4,3.2,1.3c0.9,0.8,1.3,1.9,1.3,3.1
		c0,1.3-0.4,2.3-1.3,3.1c-0.9,0.8-2,1.3-3.3,1.3h-3.5V110.9L93.6,110.9z M94.6,111.8v6.9h2.6c1,0,1.8-0.3,2.5-1s1-1.5,1-2.5
		c0-1-0.3-1.8-1-2.5c-0.7-0.7-1.5-1-2.5-1H94.6L94.6,111.8z M109.5,111.8h-5v2.9h4.4v1h-4.4v3h5.1v1h-6.1v-8.8h6V111.8L109.5,111.8z
		 M120.7,117.4h-4.8l-1,2.2h-1.1l4-8.8h1l3.9,8.8h-1.1L120.7,117.4L120.7,117.4z M120.3,116.5l-2-4.5l-2,4.5H120.3L120.3,116.5z
		 M131.1,110.9v5.2c0,1.2-0.3,2.1-1,2.7c-0.7,0.7-1.6,1-2.7,1c-1.2,0-2.1-0.3-2.7-1c-0.7-0.7-1-1.6-1-2.7v-5.2h1v5.2
		c0,0.8,0.2,1.5,0.7,2s1.1,0.7,2,0.7c0.8,0,1.5-0.2,2-0.7c0.5-0.5,0.7-1.1,0.7-2v-5.2H131.1L131.1,110.9z M137,115.1l3.2,4.6h-1.2
		l-2.7-3.7l-2.7,3.7h-1.2l3.2-4.5l-3-4.3h1.2l2.4,3.4l2.5-3.4h1.2L137,115.1L137,115.1z M151,117.4h-4.8l-1,2.2h-1.1l4-8.8h1
		l3.9,8.8H152L151,117.4L151,117.4z M150.6,116.5l-2-4.5l-2,4.5H150.6L150.6,116.5z M158,110.8c0.6,0,1.2,0.1,1.7,0.3
		s1.1,0.5,1.5,0.9l-0.6,0.8c-0.7-0.7-1.6-1.1-2.6-1.1c-1,0-1.8,0.3-2.5,1c-0.7,0.7-1,1.5-1,2.5s0.4,1.8,1.1,2.5c0.7,0.7,1.5,1,2.5,1
		s1.9-0.4,2.6-1.1l0.6,0.7c-1,0.9-2.1,1.4-3.3,1.4c-1.3,0-2.3-0.4-3.2-1.3c-0.9-0.9-1.3-1.9-1.3-3.2c0-1.2,0.4-2.3,1.3-3.1
		S156.8,110.8,158,110.8L158,110.8z M166.6,110.8c0.6,0,1.2,0.1,1.7,0.3c0.6,0.2,1.1,0.5,1.5,0.9l-0.6,0.8c-0.7-0.7-1.6-1.1-2.6-1.1
		c-1,0-1.8,0.3-2.5,1c-0.7,0.7-1,1.5-1,2.5s0.4,1.8,1.1,2.5s1.5,1,2.5,1s1.9-0.4,2.6-1.1l0.6,0.7c-1,0.9-2.1,1.4-3.3,1.4
		c-1.3,0-2.3-0.4-3.2-1.3c-0.9-0.9-1.3-1.9-1.3-3.2c0-1.2,0.4-2.3,1.3-3.1C164.3,111.3,165.4,110.8,166.6,110.8L166.6,110.8z
		 M172.7,119.7h-1v-8.8h1V119.7L172.7,119.7z M175.4,110.9h3.6c1.3,0,2.4,0.4,3.2,1.3c0.9,0.8,1.3,1.9,1.3,3.1
		c0,1.3-0.4,2.3-1.3,3.1s-2,1.3-3.3,1.3h-3.5V110.9L175.4,110.9z M176.4,111.8v6.9h2.6c1,0,1.8-0.3,2.5-1c0.7-0.7,1-1.5,1-2.5
		c0-1-0.3-1.8-1-2.5c-0.7-0.7-1.5-1-2.5-1H176.4L176.4,111.8z M191.3,111.8h-5v2.9h4.4v1h-4.4v3h5.1v1h-6.1v-8.8h6V111.8
		L191.3,111.8z M200.8,119.7h-1l-5.3-7.1v7.1h-1v-8.8h1l5.3,7.1v-7.1h1V119.7L200.8,119.7z M209.1,111.8h-2.9v7.8h-1v-7.8h-2.9v-1
		h6.8V111.8L209.1,111.8z M215.4,108.5l-1.6,1.2h-0.9l1.5-1.7L215.4,108.5L215.4,108.5z M216.5,111.8h-5v2.9h4.4v1h-4.4v3h5.1v1
		h-6.1v-8.8h6V111.8L216.5,111.8z M221.4,110.8c1,0,2,0.3,2.8,0.8l-0.4,0.9c-0.7-0.5-1.5-0.7-2.4-0.7c-0.6,0-1,0.1-1.4,0.3
		c-0.3,0.2-0.5,0.5-0.5,0.9c0,0.4,0.1,0.6,0.4,0.9s0.5,0.4,0.9,0.5c0.4,0.1,0.8,0.2,1.2,0.4c0.4,0.1,0.8,0.3,1.2,0.5
		c0.4,0.2,0.7,0.4,0.9,0.8c0.2,0.3,0.4,0.8,0.4,1.3c0,0.7-0.3,1.3-0.9,1.8c-0.6,0.4-1.4,0.7-2.3,0.7c-0.6,0-1.2-0.1-1.8-0.4
		c-0.6-0.2-1.1-0.6-1.5-1l0.5-0.9c0.4,0.4,0.9,0.7,1.4,0.9c0.5,0.2,1,0.3,1.5,0.3c0.6,0,1.1-0.1,1.5-0.4c0.4-0.2,0.6-0.6,0.6-1
		c0-0.3-0.1-0.6-0.3-0.8c-0.2-0.2-0.4-0.4-0.7-0.5c-0.3-0.1-0.6-0.2-1-0.3c-0.4-0.1-0.7-0.2-1.1-0.3c-0.4-0.1-0.7-0.3-1-0.4
		c-0.3-0.2-0.5-0.4-0.7-0.7c-0.2-0.3-0.3-0.7-0.3-1.1c0-0.7,0.3-1.2,0.8-1.7S220.4,110.8,221.4,110.8z"/>
	<g>
		<path class="st3" d="M24.5,107l-1.5-3.5h-6.9l-1.5,3.5h-3.9l7.1-16.4h3.5l7.1,16.4H24.5L24.5,107z M19.5,95.5l-2.1,4.8h4.1
			L19.5,95.5L19.5,95.5z M37.8,103.8c1.8,0,3.3-0.7,4.4-2.1l2.3,2.4c-1.9,2.1-4.1,3.1-6.6,3.1s-4.6-0.8-6.2-2.4
			c-1.6-1.6-2.5-3.6-2.5-6c0-2.4,0.8-4.5,2.5-6.1c1.7-1.6,3.7-2.4,6.1-2.4c2.7,0,4.9,1,6.8,3.1l-2.3,2.6c-1.2-1.4-2.6-2.2-4.3-2.2
			c-1.4,0-2.6,0.5-3.5,1.3c-1,0.9-1.5,2.1-1.5,3.6s0.5,2.7,1.4,3.7C35.4,103.3,36.5,103.8,37.8,103.8L37.8,103.8z M55,103.8
			c1.8,0,3.3-0.7,4.4-2.1l2.3,2.4c-1.9,2.1-4.1,3.1-6.6,3.1s-4.6-0.8-6.2-2.4c-1.6-1.6-2.5-3.6-2.5-6c0-2.4,0.8-4.5,2.5-6.1
			c1.7-1.6,3.7-2.4,6.1-2.4c2.7,0,4.9,1,6.8,3.1l-2.3,2.6c-1.2-1.4-2.6-2.2-4.3-2.2c-1.4,0-2.6,0.5-3.5,1.3c-1,0.9-1.5,2.1-1.5,3.6
			s0.5,2.7,1.4,3.7C52.5,103.3,53.7,103.8,55,103.8L55,103.8z M64.6,90.6h3.7V107h-3.7V90.6L64.6,90.6z M78.1,90.6
			c2.9,0,5.2,0.7,6.7,2.1c1.6,1.4,2.3,3.4,2.3,6c0,2.5-0.8,4.6-2.3,6.1c-1.5,1.5-3.9,2.2-7,2.2h-5.6V90.6H78.1L78.1,90.6z
			 M78.3,103.8c1.7,0,3-0.4,3.9-1.3c0.9-0.8,1.3-2.1,1.3-3.7c0-1.6-0.4-2.9-1.3-3.7c-0.9-0.9-2.3-1.3-4.1-1.3h-2v10H78.3L78.3,103.8
			z M102.2,90.6v3.3H94v3.4h7.3v3.1H94v3.4h8.4v3.2H90.4V90.6H102.2L102.2,90.6z M117.2,90.6h3.7V107h-3.7l-7.8-10.3V107h-3.7V90.6
			h3.4l8,10.6V90.6L117.2,90.6z M131.8,93.8V107h-3.7V93.8h-4.6v-3.2h12.9v3.2H131.8z"/>
		<path class="st0" d="M150.6,93.5c-0.6,0-1.1,0.1-1.4,0.4c-0.4,0.3-0.5,0.7-0.5,1.1s0.2,0.9,0.6,1.1c0.4,0.3,1.4,0.6,3,1
			c1.6,0.4,2.8,1,3.6,1.7c0.9,0.8,1.3,1.9,1.3,3.4c0,1.5-0.6,2.7-1.7,3.6c-1.1,0.9-2.6,1.4-4.4,1.4c-2.6,0-4.9-1-7-2.9l2.2-2.7
			c1.8,1.5,3.4,2.3,4.9,2.3c0.7,0,1.2-0.1,1.6-0.4c0.4-0.3,0.6-0.7,0.6-1.2s-0.2-0.9-0.6-1.2c-0.4-0.3-1.2-0.6-2.4-0.9
			c-1.9-0.5-3.3-1-4.2-1.8c-0.9-0.7-1.3-1.9-1.3-3.4c0-1.6,0.6-2.8,1.7-3.6c1.1-0.8,2.5-1.3,4.2-1.3c1.1,0,2.2,0.2,3.3,0.6
			c1.1,0.4,2,0.9,2.9,1.6l-1.9,2.7C153.6,94,152.1,93.5,150.6,93.5L150.6,93.5z M172.8,98.7c0-1.5-0.5-2.7-1.4-3.7
			c-0.9-1-2.1-1.5-3.5-1.5c-1.4,0-2.5,0.5-3.5,1.5c-0.9,1-1.4,2.3-1.4,3.7s0.5,2.7,1.4,3.7c0.9,1,2.1,1.5,3.5,1.5
			c1.4,0,2.5-0.5,3.5-1.5C172.4,101.4,172.8,100.2,172.8,98.7L172.8,98.7z M174.1,104.8c-1.7,1.6-3.7,2.4-6.1,2.4s-4.5-0.8-6.1-2.4
			c-1.7-1.6-2.5-3.6-2.5-6c0-2.4,0.8-4.4,2.5-6c1.7-1.6,3.7-2.4,6.1-2.4s4.5,0.8,6.1,2.4c1.7,1.6,2.5,3.6,2.5,6
			C176.6,101.1,175.7,103.1,174.1,104.8L174.1,104.8z M179.7,107V90.6h3.7v13.1h7v3.3H179.7L179.7,107z M197,102.8
			c0.6,0.8,1.4,1.1,2.5,1.1c1,0,1.8-0.4,2.5-1.1s0.9-1.8,0.9-3.1v-9.1h3.7v9.2c0,2.4-0.7,4.2-2,5.5c-1.3,1.3-3,1.9-5,1.9
			s-3.7-0.6-5.1-1.9c-1.3-1.3-2-3.1-2-5.5v-9.2h3.7v9.1C196.1,101,196.4,102,197,102.8L197,102.8z M217.2,93.8V107h-3.7V93.8h-4.6
			v-3.2h13v3.2H217.2L217.2,93.8z M224.5,90.6h3.7V107h-3.7V90.6L224.5,90.6z M244.8,98.7c0-1.5-0.5-2.7-1.4-3.7
			c-0.9-1-2.1-1.5-3.5-1.5c-1.4,0-2.5,0.5-3.5,1.5c-0.9,1-1.4,2.3-1.4,3.7s0.5,2.7,1.4,3.7c0.9,1,2.1,1.5,3.5,1.5
			c1.4,0,2.5-0.5,3.5-1.5C244.3,101.4,244.8,100.2,244.8,98.7L244.8,98.7z M246,104.8c-1.7,1.6-3.7,2.4-6.1,2.4s-4.5-0.8-6.1-2.4
			c-1.7-1.6-2.5-3.6-2.5-6c0-2.4,0.8-4.4,2.5-6c1.7-1.6,3.7-2.4,6.1-2.4s4.5,0.8,6.1,2.4c1.7,1.6,2.5,3.6,2.5,6
			C248.5,101.1,247.7,103.1,246,104.8L246,104.8z M263.1,90.6h3.7V107h-3.7l-7.8-10.3V107h-3.7V90.6h3.4l8,10.6V90.6L263.1,90.6z
			 M270.6,106.6c-0.4-0.4-0.6-0.9-0.6-1.5s0.2-1.1,0.6-1.5c0.4-0.4,0.9-0.6,1.5-0.6c0.6,0,1.1,0.2,1.5,0.6c0.4,0.4,0.6,0.9,0.6,1.5
			s-0.2,1.1-0.6,1.5c-0.4,0.4-0.9,0.6-1.5,0.6C271.5,107.2,271,107,270.6,106.6L270.6,106.6z M285,103.8c1.8,0,3.3-0.7,4.4-2.1
			l2.3,2.4c-1.9,2.1-4.1,3.1-6.6,3.1c-2.5,0-4.6-0.8-6.2-2.4c-1.6-1.6-2.5-3.6-2.5-6c0-2.4,0.8-4.5,2.5-6.1c1.7-1.6,3.7-2.4,6.1-2.4
			c2.7,0,4.9,1,6.8,3.1l-2.3,2.6c-1.2-1.4-2.6-2.2-4.3-2.2c-1.4,0-2.6,0.5-3.5,1.3c-1,0.9-1.5,2.1-1.5,3.6s0.5,2.7,1.4,3.7
			C282.6,103.3,283.7,103.8,285,103.8L285,103.8z M306.2,107l-1.5-3.5h-6.9l-1.5,3.5h-3.9l7.1-16.4h3.5l7.1,16.4H306.2L306.2,107z
			 M301.3,95.5l-2.1,4.8h4.1L301.3,95.5z"/>
	</g>
	<text transform="matrix(1.18 0 0 1 86.7998 131.4409)" class="st4 st2 st5">CABINET D’AVOCATS</text>
	<text transform="matrix(1.18 0 0 1 79.4756 119.4409)" class="st4 st2 st5">AIDE AUX ACCIDENTÉS</text>
	<g class="st6">
		<path class="st7" d="M166.2,119.2c-0.5,0.2-1.5,0.4-2.7,0.4c-2.9,0-5.1-1.6-5.1-4.4c0-2.7,2.2-4.6,5.4-4.6c1.3,0,2.1,0.2,2.5,0.4
			l-0.3,0.9c-0.5-0.2-1.2-0.4-2.1-0.4c-2.4,0-4,1.3-4,3.6c0,2.1,1.5,3.5,4,3.5c0.8,0,1.6-0.1,2.2-0.4L166.2,119.2z"/>
		<path class="st7" d="M169.6,116.7l-1.1,2.8h-1.4l3.5-8.8h1.6l3.5,8.8h-1.4l-1.1-2.8H169.6z M173,115.8l-1-2.5
			c-0.2-0.6-0.4-1.1-0.5-1.6h0c-0.2,0.5-0.3,1.1-0.5,1.6l-1,2.5H173z"/>
		<path class="st7" d="M177.3,110.8c0.6-0.1,1.5-0.2,2.4-0.2c1.3,0,2.2,0.2,2.8,0.6c0.5,0.3,0.9,0.9,0.9,1.5c0,0.8-0.7,1.6-1.7,1.9
			v0c1,0.2,2.1,0.9,2.1,2.2c0,0.8-0.4,1.3-0.9,1.8c-0.7,0.6-1.9,0.8-3.6,0.8c-0.9,0-1.6-0.1-2.1-0.1V110.8z M178.6,114.4h1.2
			c1.4,0,2.2-0.6,2.2-1.5c0-1-0.9-1.4-2.3-1.4c-0.6,0-1,0-1.2,0.1V114.4z M178.6,118.6c0.3,0,0.6,0.1,1.1,0.1c1.4,0,2.7-0.4,2.7-1.7
			c0-1.2-1.2-1.7-2.7-1.7h-1.1V118.6z"/>
		<path class="st7" d="M187,110.7v8.8h-1.3v-8.8H187z"/>
		<path class="st7" d="M189.3,119.4v-8.8h1.5l3.3,4.4c0.8,1,1.4,2,1.9,2.8l0,0c-0.1-1.2-0.2-2.2-0.2-3.6v-3.7h1.3v8.8h-1.3l-3.3-4.4
			c-0.7-1-1.4-2-1.9-2.9l0,0c0.1,1.1,0.1,2.2,0.1,3.6v3.7H189.3z"/>
		<path class="st7" d="M204.7,115.3h-4v3.2h4.5v0.9h-5.8v-8.8h5.6v0.9h-4.2v2.8h4V115.3z"/>
		<path class="st7" d="M209.1,111.6H206v-1h7.7v1h-3.2v7.8h-1.3V111.6z"/>
		<path class="st7" d="M218.1,110.8c0.8-0.1,1.8-0.2,2.8-0.2c1.9,0,3.3,0.4,4.2,1.1c0.9,0.7,1.5,1.7,1.5,3.1c0,1.4-0.5,2.6-1.5,3.4
			c-1,0.8-2.6,1.3-4.6,1.3c-1,0-1.7,0-2.4-0.1V110.8z M219.4,118.5c0.3,0.1,0.8,0.1,1.3,0.1c2.9,0,4.4-1.4,4.4-3.7
			c0-2.1-1.4-3.4-4.2-3.4c-0.7,0-1.2,0.1-1.6,0.1V118.5z"/>
		<path class="st7" d="M230.1,110.5c-0.4,1.1-1,2.5-1.4,3.1l-0.9,0.1c0.3-0.8,0.7-2.1,0.9-3.1L230.1,110.5z"/>
		<path class="st7" d="M231.9,116.7l-1.1,2.8h-1.4l3.5-8.8h1.6l3.5,8.8h-1.4l-1.1-2.8H231.9z M235.3,115.8l-1-2.5
			c-0.2-0.6-0.4-1.1-0.5-1.6h0c-0.2,0.5-0.3,1.1-0.5,1.6l-1,2.5H235.3z"/>
		<path class="st7" d="M241,119.4l-3.4-8.8h1.4l1.6,4.3c0.4,1.2,0.8,2.2,1.1,3.3h0c0.3-1,0.7-2.1,1.2-3.3l1.7-4.3h1.4l-3.7,8.8H241z
			"/>
		<path class="st7" d="M256.2,115c0,3-2.2,4.6-4.8,4.6c-2.7,0-4.6-1.8-4.6-4.4c0-2.8,2-4.6,4.8-4.6
			C254.3,110.5,256.2,112.4,256.2,115z M248.2,115.1c0,1.9,1.2,3.5,3.3,3.5c2.1,0,3.3-1.7,3.3-3.6c0-1.7-1.1-3.6-3.3-3.6
			C249.3,111.5,248.2,113.2,248.2,115.1z"/>
		<path class="st7" d="M265.1,119.2c-0.5,0.2-1.5,0.4-2.7,0.4c-2.9,0-5.1-1.6-5.1-4.4c0-2.7,2.2-4.6,5.4-4.6c1.3,0,2.1,0.2,2.5,0.4
			l-0.3,0.9c-0.5-0.2-1.2-0.4-2.1-0.4c-2.4,0-4,1.3-4,3.6c0,2.1,1.5,3.5,4,3.5c0.8,0,1.6-0.1,2.2-0.4L265.1,119.2z"/>
		<path class="st7" d="M268.5,116.7l-1.1,2.8h-1.4l3.5-8.8h1.6l3.5,8.8h-1.4l-1.1-2.8H268.5z M271.9,115.8l-1-2.5
			c-0.2-0.6-0.4-1.1-0.5-1.6h0c-0.2,0.5-0.3,1.1-0.5,1.6l-1,2.5H271.9z"/>
		<path class="st7" d="M277,111.6h-3.1v-1h7.7v1h-3.2v7.8H277V111.6z"/>
		<path class="st7" d="M282.4,118.1c0.6,0.3,1.5,0.6,2.4,0.6c1.4,0,2.2-0.6,2.2-1.5c0-0.8-0.6-1.3-1.9-1.7c-1.7-0.5-2.7-1.2-2.7-2.5
			c0-1.4,1.3-2.4,3.3-2.4c1.1,0,1.8,0.2,2.3,0.4l-0.4,0.9c-0.3-0.2-1-0.4-2-0.4c-1.4,0-1.9,0.7-1.9,1.3c0,0.8,0.6,1.2,2.1,1.7
			c1.7,0.6,2.6,1.3,2.6,2.6c0,1.4-1.2,2.5-3.6,2.5c-1,0-2.1-0.2-2.6-0.6L282.4,118.1z"/>
	</g>
	<g class="st6">
		<path class="st7" d="M12.3,116.7l-1.1,2.8H9.9l3.5-8.8H15l3.5,8.8h-1.4l-1.1-2.8H12.3z M15.7,115.8l-1-2.5
			c-0.2-0.6-0.4-1.1-0.5-1.6h0c-0.2,0.5-0.3,1.1-0.5,1.6l-1,2.5H15.7z"/>
		<path class="st7" d="M21.4,110.7v8.8H20v-8.8H21.4z"/>
		<path class="st7" d="M23.7,110.8c0.8-0.1,1.8-0.2,2.8-0.2c1.9,0,3.3,0.4,4.2,1.1c0.9,0.7,1.5,1.7,1.5,3.1c0,1.4-0.5,2.6-1.5,3.4
			c-1,0.8-2.6,1.3-4.6,1.3c-1,0-1.7,0-2.4-0.1V110.8z M25,118.5c0.3,0.1,0.8,0.1,1.3,0.1c2.9,0,4.4-1.4,4.4-3.7
			c0-2.1-1.4-3.4-4.2-3.4c-0.7,0-1.2,0.1-1.6,0.1V118.5z"/>
		<path class="st7" d="M39.3,115.3h-4v3.2h4.5v0.9h-5.8v-8.8h5.6v0.9h-4.2v2.8h4V115.3z"/>
		<path class="st7" d="M46.4,116.7l-1.1,2.8h-1.4l3.5-8.8h1.6l3.5,8.8h-1.4l-1.1-2.8H46.4z M49.8,115.8l-1-2.5
			c-0.2-0.6-0.4-1.1-0.5-1.6h0c-0.2,0.5-0.3,1.1-0.5,1.6l-1,2.5H49.8z"/>
		<path class="st7" d="M55,110.7v5.2c0,2,1,2.8,2.4,2.8c1.5,0,2.5-0.9,2.5-2.8v-5.2h1.3v5.1c0,2.7-1.7,3.8-3.9,3.8
			c-2.1,0-3.7-1-3.7-3.7v-5.2H55z"/>
		<path class="st7" d="M69.3,119.4l-1.3-1.9c-0.5-0.7-0.9-1.2-1.2-1.7h0c-0.3,0.5-0.6,1-1.1,1.7l-1.2,1.9h-1.5L66,115l-3-4.3h1.5
			l1.4,2.1c0.4,0.6,0.7,1,1,1.5h0c0.3-0.5,0.6-0.9,0.9-1.5l1.4-2.1h1.5l-3.1,4.3l3.2,4.5H69.3z"/>
		<path class="st7" d="M77.3,116.7l-1.1,2.8h-1.4l3.5-8.8h1.6l3.5,8.8H82l-1.1-2.8H77.3z M80.7,115.8l-1-2.5
			c-0.2-0.6-0.4-1.1-0.5-1.6h0c-0.2,0.5-0.3,1.1-0.5,1.6l-1,2.5H80.7z"/>
		<path class="st7" d="M92,119.2c-0.5,0.2-1.5,0.4-2.7,0.4c-2.9,0-5.1-1.6-5.1-4.4c0-2.7,2.2-4.6,5.4-4.6c1.3,0,2.1,0.2,2.5,0.4
			l-0.3,0.9c-0.5-0.2-1.2-0.4-2.1-0.4c-2.4,0-4,1.3-4,3.6c0,2.1,1.5,3.5,4,3.5c0.8,0,1.6-0.1,2.2-0.4L92,119.2z"/>
		<path class="st7" d="M100.6,119.2c-0.5,0.2-1.5,0.4-2.7,0.4c-2.9,0-5.1-1.6-5.1-4.4c0-2.7,2.2-4.6,5.4-4.6c1.3,0,2.1,0.2,2.5,0.4
			l-0.3,0.9c-0.5-0.2-1.2-0.4-2.1-0.4c-2.4,0-4,1.3-4,3.6c0,2.1,1.5,3.5,4,3.5c0.8,0,1.6-0.1,2.2-0.4L100.6,119.2z"/>
		<path class="st7" d="M103.6,110.7v8.8h-1.3v-8.8H103.6z"/>
		<path class="st7" d="M105.9,110.8c0.8-0.1,1.8-0.2,2.8-0.2c1.9,0,3.3,0.4,4.2,1.1c0.9,0.7,1.5,1.7,1.5,3.1c0,1.4-0.5,2.6-1.5,3.4
			c-1,0.8-2.6,1.3-4.6,1.3c-1,0-1.8,0-2.4-0.1V110.8z M107.2,118.5c0.3,0.1,0.8,0.1,1.3,0.1c2.9,0,4.4-1.4,4.4-3.7
			c0-2.1-1.4-3.4-4.2-3.4c-0.7,0-1.2,0.1-1.6,0.1V118.5z"/>
		<path class="st7" d="M121.5,115.3h-4v3.2h4.5v0.9h-5.8v-8.8h5.6v0.9h-4.2v2.8h4V115.3z"/>
		<path class="st7" d="M123.7,119.4v-8.8h1.5l3.3,4.4c0.8,1,1.4,2,1.9,2.8l0,0c-0.1-1.2-0.2-2.2-0.2-3.6v-3.7h1.3v8.8h-1.3l-3.3-4.4
			c-0.7-1-1.4-2-1.9-2.9l0,0c0.1,1.1,0.1,2.2,0.1,3.6v3.7H123.7z"/>
		<path class="st7" d="M135.7,111.6h-3.1v-1h7.7v1h-3.2v7.8h-1.3V111.6z"/>
		<path class="st7" d="M146.7,115.3h-4v3.2h4.5v0.9h-5.8v-8.8h5.6v0.9h-4.2v2.8h4V115.3z M146.5,108.7l-1.9,1.5h-1.1l1.4-1.5H146.5z
			"/>
		<path class="st7" d="M148.7,118.1c0.6,0.3,1.5,0.6,2.4,0.6c1.4,0,2.2-0.6,2.2-1.5c0-0.8-0.6-1.3-1.9-1.7c-1.7-0.5-2.7-1.2-2.7-2.5
			c0-1.4,1.3-2.4,3.3-2.4c1.1,0,1.8,0.2,2.3,0.4l-0.4,0.9c-0.3-0.2-1-0.4-2-0.4c-1.4,0-1.9,0.7-1.9,1.3c0,0.8,0.6,1.2,2.1,1.7
			c1.8,0.6,2.6,1.3,2.6,2.6c0,1.4-1.2,2.5-3.6,2.5c-1,0-2.1-0.2-2.6-0.6L148.7,118.1z"/>
	</g>
	<g>
		<path class="st8" d="M60.2,147c-0.9,0.4-2.6,0.7-4.8,0.7c-5.1,0-8.9-2.7-8.9-7.8c0-4.8,3.8-8.1,9.5-8.1c2.3,0,3.7,0.4,4.3,0.7
			l-0.6,1.6c-0.9-0.4-2.2-0.6-3.7-0.6c-4.2,0-7.1,2.3-7.1,6.3c0,3.8,2.6,6.2,7,6.2c1.4,0,2.9-0.3,3.8-0.6L60.2,147z"/>
		<path class="st8" d="M66.2,142.7l-1.9,4.8h-2.4l6.2-15.4h2.8l6.2,15.4h-2.5l-1.9-4.8H66.2z M72.1,141.1l-1.8-4.4
			c-0.4-1-0.7-1.9-0.9-2.8h-0.1c-0.3,0.9-0.6,1.8-0.9,2.8l-1.8,4.4H72.1z"/>
		<path class="st8" d="M79.7,132.4c1-0.2,2.6-0.3,4.3-0.3c2.3,0,3.8,0.3,5,1.1c0.9,0.6,1.5,1.5,1.5,2.7c0,1.5-1.2,2.8-3.1,3.4v0
			c1.7,0.4,3.7,1.6,3.7,3.9c0,1.3-0.6,2.3-1.5,3.1c-1.3,1-3.3,1.4-6.3,1.4c-1.6,0-2.8-0.1-3.6-0.2V132.4z M82.1,138.6h2.1
			c2.5,0,3.9-1.1,3.9-2.6c0-1.8-1.6-2.5-4-2.5c-1.1,0-1.7,0.1-2.1,0.1V138.6z M82.1,146c0.5,0.1,1.1,0.1,2,0.1c2.4,0,4.6-0.8,4.6-3
			c0-2.1-2.1-3-4.7-3h-1.9V146z"/>
		<path class="st8" d="M96.6,132.2v15.4h-2.3v-15.4H96.6z"/>
		<path class="st8" d="M100.7,147.5v-15.4h2.6l5.8,7.8c1.3,1.8,2.4,3.4,3.3,5l0.1,0c-0.2-2-0.3-3.9-0.3-6.3v-6.4h2.2v15.4H112
			l-5.8-7.8c-1.3-1.7-2.5-3.5-3.4-5.1l-0.1,0c0.1,1.9,0.2,3.8,0.2,6.3v6.6H100.7z"/>
		<path class="st8" d="M127.8,140.3h-7v5.5h7.8v1.7h-10.2v-15.4h9.8v1.7h-7.4v4.9h7V140.3z"/>
		<path class="st8" d="M135.5,133.8H130v-1.7h13.4v1.7h-5.5v13.7h-2.4V133.8z"/>
		<path class="st8" d="M151.1,132.4c1.4-0.2,3.1-0.3,5-0.3c3.4,0,5.8,0.7,7.3,1.9c1.6,1.3,2.6,3,2.6,5.5c0,2.5-0.9,4.6-2.6,6
			c-1.7,1.4-4.5,2.2-8,2.2c-1.7,0-3.1-0.1-4.2-0.2V132.4z M153.5,145.9c0.6,0.1,1.5,0.1,2.4,0.1c5,0,7.7-2.4,7.7-6.5
			c0-3.6-2.4-5.9-7.3-5.9c-1.2,0-2.1,0.1-2.7,0.2V145.9z"/>
		<path class="st8" d="M172.2,131.9c-0.6,1.9-1.8,4.4-2.5,5.4l-1.5,0.2c0.6-1.3,1.3-3.7,1.6-5.4L172.2,131.9z"/>
		<path class="st8" d="M175.3,142.7l-1.9,4.8H171l6.2-15.4h2.8l6.2,15.4h-2.5l-1.9-4.8H175.3z M181.3,141.1l-1.8-4.4
			c-0.4-1-0.7-1.9-0.9-2.8h-0.1c-0.3,0.9-0.6,1.8-0.9,2.8l-1.8,4.4H181.3z"/>
		<path class="st8" d="M191.4,147.5l-5.9-15.4h2.5l2.8,7.6c0.8,2.1,1.5,3.9,1.9,5.7h0.1c0.5-1.8,1.3-3.7,2.1-5.7l3.1-7.6h2.5
			l-6.5,15.4H191.4z"/>
		<path class="st8" d="M217.9,139.7c0,5.3-3.8,8.1-8.4,8.1c-4.8,0-8.1-3.1-8.1-7.8c0-4.9,3.6-8.1,8.4-8.1
			C214.7,131.9,217.9,135.1,217.9,139.7z M203.9,139.9c0,3.3,2.1,6.2,5.8,6.2c3.7,0,5.8-2.9,5.8-6.4c0-3.1-1.9-6.2-5.8-6.2
			C205.8,133.5,203.9,136.6,203.9,139.9z"/>
		<path class="st8" d="M233.6,147c-0.9,0.4-2.6,0.7-4.8,0.7c-5.1,0-8.9-2.7-8.9-7.8c0-4.8,3.8-8.1,9.5-8.1c2.3,0,3.7,0.4,4.3,0.7
			l-0.6,1.6c-0.9-0.4-2.2-0.6-3.7-0.6c-4.2,0-7.1,2.3-7.1,6.3c0,3.8,2.6,6.2,7,6.2c1.4,0,2.9-0.3,3.8-0.6L233.6,147z"/>
		<path class="st8" d="M239.6,142.7l-1.9,4.8h-2.4l6.2-15.4h2.8l6.2,15.4H248l-1.9-4.8H239.6z M245.5,141.1l-1.8-4.4
			c-0.4-1-0.7-1.9-0.9-2.8h-0.1c-0.3,0.9-0.6,1.8-0.9,2.8l-1.8,4.4H245.5z"/>
		<path class="st8" d="M254.5,133.8H249v-1.7h13.4v1.7h-5.5v13.7h-2.4V133.8z"/>
		<path class="st8" d="M263.9,145.1c1,0.5,2.6,1,4.2,1c2.4,0,3.8-1.1,3.8-2.6c0-1.4-1-2.3-3.4-3.1c-3-0.9-4.8-2.2-4.8-4.4
			c0-2.4,2.3-4.2,5.9-4.2c1.9,0,3.2,0.4,4,0.8l-0.6,1.6c-0.6-0.3-1.8-0.7-3.4-0.7c-2.5,0-3.4,1.3-3.4,2.3c0,1.4,1.1,2.1,3.6,3
			c3.1,1,4.6,2.3,4.6,4.5c0,2.4-2.1,4.4-6.3,4.4c-1.7,0-3.7-0.4-4.6-1L263.9,145.1z"/>
	</g>
	<g>
		<path class="st8" d="M44.6,121l-1.8,4.6h-2.3l5.8-14.5H49l5.8,14.5h-2.4l-1.8-4.6H44.6z M50.2,119.5l-1.7-4.2
			c-0.4-0.9-0.6-1.8-0.9-2.6h-0.1c-0.3,0.9-0.5,1.7-0.9,2.6l-1.7,4.2H50.2z"/>
		<path class="st8" d="M59.6,111.1v14.5h-2.2v-14.5H59.6z"/>
		<path class="st8" d="M63.5,111.3c1.3-0.2,2.9-0.3,4.7-0.3c3.2,0,5.4,0.6,6.9,1.8c1.5,1.2,2.4,2.9,2.4,5.2c0,2.4-0.9,4.3-2.5,5.6
			c-1.6,1.4-4.2,2.1-7.6,2.1c-1.6,0-2.9-0.1-4-0.2V111.3z M65.7,124.1c0.6,0.1,1.4,0.1,2.2,0.1c4.7,0,7.3-2.2,7.3-6.2
			c0-3.4-2.3-5.6-6.9-5.6c-1.1,0-2,0.1-2.6,0.2V124.1z"/>
		<path class="st8" d="M89.2,118.8h-6.7v5.2H90v1.6h-9.6v-14.5h9.2v1.6h-7v4.6h6.7V118.8z"/>
		<path class="st8" d="M101,121l-1.8,4.6H97l5.8-14.5h2.7l5.8,14.5h-2.4l-1.8-4.6H101z M106.6,119.5l-1.7-4.2
			c-0.4-0.9-0.6-1.8-0.9-2.6H104c-0.3,0.9-0.5,1.7-0.9,2.6l-1.7,4.2H106.6z"/>
		<path class="st8" d="M115.3,111.1v8.6c0,3.2,1.7,4.6,4,4.6c2.5,0,4.2-1.4,4.2-4.6v-8.6h2.2v8.5c0,4.5-2.8,6.3-6.5,6.3
			c-3.5,0-6.1-1.7-6.1-6.2v-8.5H115.3z"/>
		<path class="st8" d="M138.9,125.6l-2.2-3.2c-0.9-1.2-1.4-2-2-2.9h-0.1c-0.5,0.8-1,1.6-1.9,2.9l-2.1,3.2h-2.5l5.2-7.3l-5-7.2h2.6
			l2.3,3.4c0.6,0.9,1.1,1.7,1.6,2.5h0.1c0.5-0.9,0.9-1.5,1.5-2.5l2.3-3.4h2.5l-5.2,7.1l5.3,7.4H138.9z"/>
		<path class="st8" d="M152.1,121l-1.8,4.6h-2.3l5.8-14.5h2.7l5.8,14.5H160l-1.8-4.6H152.1z M157.8,119.5l-1.7-4.2
			c-0.4-0.9-0.6-1.8-0.9-2.6h-0.1c-0.3,0.9-0.5,1.7-0.9,2.6l-1.7,4.2H157.8z"/>
		<path class="st8" d="M176.5,125.1c-0.8,0.3-2.4,0.7-4.5,0.7c-4.8,0-8.5-2.6-8.5-7.3c0-4.5,3.6-7.6,8.9-7.6c2.1,0,3.5,0.4,4.1,0.6
			L176,113c-0.8-0.3-2-0.6-3.5-0.6c-4,0-6.7,2.2-6.7,6c0,3.5,2.4,5.8,6.6,5.8c1.3,0,2.7-0.2,3.6-0.6L176.5,125.1z"/>
		<path class="st8" d="M190.7,125.1c-0.8,0.3-2.4,0.7-4.5,0.7c-4.8,0-8.4-2.6-8.4-7.3c0-4.5,3.6-7.6,8.9-7.6c2.1,0,3.5,0.4,4.1,0.6
			l-0.5,1.5c-0.8-0.3-2-0.6-3.5-0.6c-4,0-6.7,2.2-6.7,6c0,3.5,2.4,5.8,6.6,5.8c1.3,0,2.7-0.2,3.6-0.6L190.7,125.1z"/>
		<path class="st8" d="M195.7,111.1v14.5h-2.2v-14.5H195.7z"/>
		<path class="st8" d="M199.5,111.3c1.3-0.2,2.9-0.3,4.7-0.3c3.2,0,5.4,0.6,6.9,1.8c1.5,1.2,2.4,2.9,2.4,5.2c0,2.4-0.9,4.3-2.5,5.6
			c-1.6,1.4-4.2,2.1-7.6,2.1c-1.6,0-2.9-0.1-4-0.2V111.3z M201.7,124.1c0.6,0.1,1.4,0.1,2.2,0.1c4.7,0,7.3-2.2,7.3-6.2
			c0-3.4-2.3-5.6-6.9-5.6c-1.1,0-2,0.1-2.6,0.2V124.1z"/>
		<path class="st8" d="M225.3,118.8h-6.7v5.2h7.4v1.6h-9.6v-14.5h9.2v1.6h-7v4.6h6.7V118.8z"/>
		<path class="st8" d="M228.9,125.6v-14.5h2.4l5.5,7.3c1.3,1.7,2.3,3.2,3.1,4.7l0.1,0c-0.2-1.9-0.3-3.7-0.3-6v-6.1h2.1v14.5h-2.2
			l-5.4-7.4c-1.2-1.6-2.3-3.3-3.2-4.8l-0.1,0c0.1,1.8,0.2,3.6,0.2,6v6.2H228.9z"/>
		<path class="st8" d="M248.9,112.7h-5.2v-1.6h12.7v1.6h-5.2v12.9h-2.2V112.7z"/>
		<path class="st8" d="M267.1,118.8h-6.6v5.2h7.4v1.6h-9.6v-14.5h9.2v1.6h-7v4.6h6.6V118.8z M266.7,107.8l-3.2,2.5h-1.8l2.4-2.5
			H266.7z"/>
		<path class="st8" d="M270.4,123.3c1,0.5,2.4,0.9,4,0.9c2.3,0,3.6-1,3.6-2.5c0-1.4-0.9-2.1-3.2-2.9c-2.8-0.8-4.5-2.1-4.5-4.1
			c0-2.3,2.2-3.9,5.5-3.9c1.8,0,3,0.3,3.8,0.7l-0.6,1.5c-0.6-0.3-1.7-0.7-3.2-0.7c-2.3,0-3.2,1.2-3.2,2.2c0,1.4,1,2,3.4,2.8
			c2.9,0.9,4.4,2.1,4.4,4.3c0,2.2-2,4.2-6,4.2c-1.6,0-3.5-0.4-4.4-0.9L270.4,123.3z"/>
	</g>
</g>
</svg>
