<?xml version="1.0" encoding="UTF-8"?> <svg xmlns="http://www.w3.org/2000/svg" id="Calque_1" data-name="Calque 1" viewBox="0 0 35 57"><defs><style>.cls-1{fill:#2d2d2d;}</style></defs><title>barreau-du-quebec</title><path class="cls-1" d="M22.42,40.24a1,1,0,0,0-.81-.59H16.3a.4.4,0,0,0-.38.59L20.27,52a1,1,0,0,0,.82.59H26.4a.4.4,0,0,0,.38-.59Z"></path><path class="cls-1" d="M18.78,10.36c-13,0-15.87,7.39-15.87,14.18h0c0,6.8,2.82,14.19,15.87,14.19s15.87-7.39,15.87-14.19S31.83,10.36,18.78,10.36Zm0,20.16c-7.58,0-7.58-4.29-7.58-6s0-6,7.58-6,7.58,4.28,7.58,6S26.36,30.52,18.78,30.52Z"></path><path class="cls-1" d="M14.62,41.38,10.78,52a.4.4,0,0,0,.38.59h5.1a.94.94,0,0,0,.82-.59c.28-.72.75-1.85,1-2.58l-3-8C15.09,41.05,14.74,41.06,14.62,41.38Z"></path></svg> 