<?xml version="1.0" encoding="UTF-8"?> <svg xmlns="http://www.w3.org/2000/svg" viewBox="0 0 545.6 154.3"><path fill="#000" d="M111.3 30.7H146v9.7h.2c3.8-5 15.2-11.9 32.3-11.9 19.7 0 34.5 8.9 34.5 30.5v49.7h-35.7V68.3c0-9.8-5.2-14.1-13.7-14.1-9.4 0-16.5 5.6-16.5 18.5v36h-35.7v-78zm110.2 0h38l12.7 46h.3l17-46h30.3l15.5 46h.3l14.1-46h38.1l-26.5 78h-41.5l-15.2-40.8-15 40.8H248l-26.5-78zm174.9 0h34.5v10.7h.3c5.5-7.3 14.2-12.9 29-12.9 15.5 0 21.7 5.3 25.9 13 4.8-7.1 14.2-13 28.7-13 17 0 30.8 7.4 30.8 26.4v53.8h-35.7V64.6c0-7.8-3.3-10.4-9.6-10.4-7.4 0-12 3.6-12 13.1v41.4h-34.6V64.6c0-7.8-3.3-10.4-9.6-10.4-7.4 0-12 3.6-12 13.1v41.4h-35.7v-78zM111.3 115.5h1.5l11.6 17v-17h1.2V134h-1.4l-11.7-17v17h-1.2v-18.4zm36.2 17.5v1H135v-18.5h12.4v1h-11.2v7.4h10.5v1h-10.5v8h11.3zm6.2-16.5v-1h14.1v1h-6.5v17.4h-1.1v-17.4h-6.5zm33.2-1h1.1l4.8 17.2 5-17.2h1.4l5 17.2 4.7-17.2h1.2l-5.3 18.4h-1.3l-5-17.4-5 17.4h-1.3l-5.3-18.4zm38.8 18.9c-5.5 0-8.7-4.3-8.7-9.7 0-5.4 3.2-9.6 8.7-9.6 5.5 0 8.8 4.2 8.8 9.6 0 5.4-3.3 9.7-8.8 9.7zm0-1c4.8 0 7.6-4 7.6-8.7s-2.8-8.6-7.6-8.6-7.6 3.9-7.6 8.6c0 4.7 2.8 8.7 7.6 8.7zm17.4-17.9h7.7c3.2 0 5.8 1.2 5.8 4.8 0 2.4-1.5 4.3-4 4.7 2.8.3 3.5 2 3.7 4 .1 1.9-.2 4 .6 5h-1.3c-.7-1.3-.3-3.4-.5-5.2-.2-1.8-1-3.2-4.3-3.2h-6.6v8.3h-1.1v-18.4zm7.7 9c2.7 0 4.7-1.2 4.7-4.2 0-2.8-2.2-3.8-4.7-3.8h-6.6v8h6.6zm12.8-8v-1h14v1h-6.4v17.4H270v-17.4h-6.4zm22.7 8.4v9H285v-18.4h1.2v8.4H298v-8.4h1.2V134H298v-9h-11.7zm35.7-9.4h1.6l7.2 17.2 7.2-17.2h1.6V134h-1.1v-17l-7 17h-1.2l-7.1-17v17H322v-18.4zm33.8 0L363 134h-1.3l-2.3-5.9h-8.8l-2.4 6h-1.2l7.4-18.5h1.3zm3.4 11.5l-4-10.4L351 127h8zm11.4-11.5h1.4l11.6 17v-17h1.2V134h-1.3l-11.7-17h-.1v17h-1.1v-18.4zm30.4 0l7.3 18.4H407l-2.3-5.9H396l-2.4 6h-1.2l7.4-18.5h1.3zm3.4 11.5l-4-10.4-4.1 10.4h8zm27.4-2v9h-1v-4c-1 2.7-3.8 4.4-7 4.4-5.6 0-8.7-4.3-8.7-9.6 0-5.2 3.1-9.7 8.7-9.7 3.8 0 7 2.3 7.7 6.1h-1.1c-.9-3.2-3.2-5.1-6.6-5.1-5 0-7.6 4.1-7.6 8.7 0 4.7 2.6 8.6 7.6 8.6 4.4 0 7.2-3 7-7.5H424v-1h7.8zm21.8 8v1h-12.5v-18.5h12.4v1h-11.3v7.4h10.6v1h-10.6v8h11.4zm8.1-17.5h1.7l7.2 17.2 7.1-17.2h1.7V134h-1.2v-17l-7 17H470l-7-17h-.1v17h-1.2v-18.4zm39.6 17.5v1h-12.5v-18.5h12.4v1h-11.3v7.4h10.6v1H490v8h11.4zm8.1-17.5h1.5l11.6 17v-17h1.2V134h-1.3l-11.8-17v17h-1.2v-18.4zm21.8 1v-1h14v1h-6.4v17.4h-1.2v-17.4h-6.4z"></path><radialGradient id="a" cx="150.9" cy="223.5" r="44.2" gradientTransform="rotate(-41.7 -148.4 289.2)" gradientUnits="userSpaceOnUse"><stop offset="0" stop-color="#8dc63f"></stop><stop offset=".2" stop-color="#89c43f"></stop><stop offset=".3" stop-color="#7bc040"></stop><stop offset=".5" stop-color="#66b840"></stop><stop offset=".7" stop-color="#47ad41"></stop><stop offset=".9" stop-color="#21a043"></stop><stop offset="1" stop-color="#009444"></stop></radialGradient><path fill="url(#a)" d="M.2 95.2l3.2-55.8L47.6 0l41 16.3z"></path><linearGradient id="b" x1="180.5" x2="180.5" y1="282.7" y2="243.2" gradientTransform="rotate(-41.7 -148.4 289.2)" gradientUnits="userSpaceOnUse"><stop offset="0" stop-color="#00aeef"></stop><stop offset=".2" stop-color="#02aaec"></stop><stop offset=".3" stop-color="#069ce2"></stop><stop offset=".5" stop-color="#0e87d2"></stop><stop offset=".7" stop-color="#1a68bb"></stop><stop offset=".9" stop-color="#28429e"></stop><stop offset="1" stop-color="#2e3192"></stop></linearGradient><path fill="url(#b)" d="M88.6 16.3L100.2 59l-55.8-3.2"></path><radialGradient id="c" cx="819.3" cy="2696.3" r="44.2" gradientTransform="rotate(138.3 936.2 1261.8)" gradientUnits="userSpaceOnUse"><stop offset="0" stop-color="#ee2a7b"></stop><stop offset=".1" stop-color="#e72a7c"></stop><stop offset=".3" stop-color="#d52b7f"></stop><stop offset=".6" stop-color="#b62b84"></stop><stop offset=".8" stop-color="#8c2c8b"></stop><stop offset="1" stop-color="#662d91"></stop></radialGradient><path fill="url(#c)" d="M100 59.1L96.8 115l-44.2 39.4-41-16.3z"></path><linearGradient id="d" x1="848.9" x2="848.9" y1="2755.6" y2="2716.1" gradientTransform="rotate(138.3 936.2 1261.8)" gradientUnits="userSpaceOnUse"><stop offset="0" stop-color="#f7941e"></stop><stop offset=".2" stop-color="#f68d1f"></stop><stop offset=".4" stop-color="#f47a23"></stop><stop offset=".8" stop-color="#f15a29"></stop><stop offset=".8" stop-color="#f15a29"></stop><stop offset="1" stop-color="#ef4136"></stop></linearGradient><path fill="url(#d)" d="M11.5 138L0 95.3l55.8 3.2"></path></svg> 